<?xml version="1.0" encoding="UTF-8" standalone="no"?>
<!DOCTYPE svg PUBLIC "-//W3C//DTD SVG 1.1//EN" "http://www.w3.org/Graphics/SVG/1.1/DTD/svg11.dtd">
<svg width="100%" height="100%" viewBox="0 0 48 48" version="1.1" xmlns="http://www.w3.org/2000/svg" xmlns:xlink="http://www.w3.org/1999/xlink" xml:space="preserve" xmlns:serif="http://www.serif.com/" style="fill-rule:evenodd;clip-rule:evenodd;stroke-linejoin:round;stroke-miterlimit:2;">
    <g transform="matrix(1.93939,0,0,1.93939,-0.242424,-0.242424)">
        <g id="Layer2">
            <path d="M17.178,24.875L17.178,15.297L20.386,15.297L20.866,11.573L17.178,11.573L17.178,9.197C17.178,8.119 17.478,7.384 19.023,7.384L20.995,7.384L20.995,4.053C20.04,3.952 19.081,3.903 18.121,3.906C15.279,3.906 13.333,5.642 13.333,8.829L13.333,11.573L10.118,11.573L10.118,15.297L13.333,15.297L13.333,24.875L1.5,24.875C1.135,24.875 0.786,24.73 0.528,24.472C0.27,24.214 0.125,23.865 0.125,23.5L0.125,1.5C0.125,1.135 0.27,0.786 0.528,0.528C0.786,0.27 1.135,0.125 1.5,0.125L23.5,0.125C23.865,0.125 24.214,0.27 24.472,0.528C24.73,0.786 24.875,1.135 24.875,1.5L24.875,23.5C24.875,23.865 24.73,24.214 24.472,24.472C24.214,24.73 23.865,24.875 23.5,24.875L17.178,24.875Z" style="fill:rgb(26,45,61);fill-rule:nonzero;"/>
        </g>
    </g>
</svg>
