<?xml version="1.0" encoding="UTF-8" standalone="no"?>
<!DOCTYPE svg PUBLIC "-//W3C//DTD SVG 1.1//EN" "http://www.w3.org/Graphics/SVG/1.1/DTD/svg11.dtd">
<svg width="100%" height="100%" viewBox="0 0 48 48" version="1.1" xmlns="http://www.w3.org/2000/svg" xmlns:xlink="http://www.w3.org/1999/xlink" xml:space="preserve" xmlns:serif="http://www.serif.com/" style="fill-rule:evenodd;clip-rule:evenodd;stroke-linejoin:round;stroke-miterlimit:2;">
    <g transform="matrix(0.707107,-0.707107,0.707107,0.707107,15.1508,34.9497)">
        <path d="M18,11L10,11L10,26C10,27.061 10.421,28.078 11.172,28.828C11.922,29.579 12.939,30 14,30C15.061,30 16.078,29.579 16.828,28.828C17.579,28.078 18,27.061 18,26L18,11Z" style="fill:white;"/>
    </g>
    <g transform="matrix(0.888889,0,0,0.888889,-5.33334,-4.44445)">
        <path d="M28.5,5C40.918,5 51,15.082 51,27.5C51,39.918 40.918,50 28.5,50C16.082,50 6,39.918 6,27.5C6,15.082 16.082,5 28.5,5ZM28.5,10.4C37.938,10.4 45.6,18.062 45.6,27.5C45.6,36.938 37.938,44.6 28.5,44.6C19.062,44.6 11.4,36.938 11.4,27.5C11.4,18.062 19.062,10.4 28.5,10.4Z" style="fill:white;"/>
    </g>
</svg>
