<svg width="25" height="25" viewBox="0 0 25 25" fill="none" xmlns="http://www.w3.org/2000/svg">
<path d="M17.1777 24.875V15.2967H20.3856L20.8655 11.5732H17.1777V9.19725C17.1777 8.11925 17.4775 7.38362 19.023 7.38362H20.9947V4.05337C20.0402 3.9521 19.0809 3.90298 18.121 3.90625C15.2789 3.90625 13.3332 5.6415 13.3332 8.82875V11.5732H10.1185V15.2967H13.3332V24.875H1.5C1.13533 24.875 0.785591 24.7301 0.527728 24.4723C0.269866 24.2144 0.125 23.8647 0.125 23.5V1.5C0.125 1.13533 0.269866 0.785591 0.527728 0.527728C0.785591 0.269866 1.13533 0.125 1.5 0.125H23.5C23.8647 0.125 24.2144 0.269866 24.4723 0.527728C24.7301 0.785591 24.875 1.13533 24.875 1.5V23.5C24.875 23.8647 24.7301 24.2144 24.4723 24.4723C24.2144 24.7301 23.8647 24.875 23.5 24.875H17.1777V24.875Z" fill="white"/>
</svg>
