<svg width="29" height="27" viewBox="0 0 29 27" fill="none" xmlns="http://www.w3.org/2000/svg">
<path d="M23.6616 12.0899C23.6613 12.2815 23.5849 12.4651 23.4493 12.6005C23.3137 12.7358 23.13 12.8118 22.9384 12.8118H20.9281V14.1016H22.9384C23.0357 14.0973 23.1329 14.1128 23.2241 14.1471C23.3154 14.1815 23.3987 14.2339 23.4691 14.3013C23.5394 14.3687 23.5955 14.4496 23.6337 14.5392C23.672 14.6289 23.6917 14.7253 23.6917 14.8227C23.6917 14.9202 23.672 15.0166 23.6337 15.1063C23.5955 15.1959 23.5394 15.2768 23.4691 15.3442C23.3987 15.4116 23.3154 15.464 23.2241 15.4984C23.1329 15.5327 23.0357 15.5482 22.9384 15.5439H20.2062C20.0159 15.5425 19.8337 15.466 19.6994 15.3311C19.565 15.1963 19.4892 15.0138 19.4885 14.8234V9.35644C19.4885 8.96181 19.8116 8.63456 20.2104 8.63456H22.9439C23.1353 8.63511 23.3187 8.71169 23.4537 8.84745C23.5887 8.98322 23.6642 9.16704 23.6637 9.3585C23.6631 9.54995 23.5866 9.73334 23.4508 9.86834C23.315 10.0033 23.1312 10.0789 22.9398 10.0783H20.9295V11.3681H22.9398C23.3399 11.3681 23.663 11.6939 23.663 12.0899H23.6616ZM18.0269 15.5068C17.9531 15.5301 17.876 15.5417 17.7986 15.5412C17.6855 15.5437 17.5733 15.519 17.4716 15.4693C17.37 15.4195 17.2817 15.3461 17.2142 15.2552L14.4147 11.4547V14.8234C14.401 15.0049 14.3192 15.1745 14.1857 15.2983C14.0522 15.422 13.877 15.4908 13.6949 15.4908C13.5129 15.4908 13.3376 15.422 13.2042 15.2983C13.0707 15.1745 12.9889 15.0049 12.9751 14.8234V9.35644C12.9748 9.16631 13.0498 8.98381 13.1839 8.84899C13.3179 8.71417 13.5 8.63804 13.6901 8.63731C13.9129 8.63731 14.1191 8.75556 14.2566 8.92743L17.0781 12.7431V9.35644C17.0781 8.96181 17.4012 8.63456 17.8 8.63456C18.1946 8.63456 18.5219 8.96181 18.5219 9.35644V14.8234C18.5217 14.9749 18.4737 15.1225 18.3849 15.2452C18.296 15.3678 18.1707 15.4594 18.0269 15.5068V15.5068ZM11.2206 15.5439C11.03 15.5428 10.8475 15.4665 10.7128 15.3316C10.5782 15.1967 10.5022 15.0141 10.5015 14.8234V9.35644C10.5015 8.96181 10.826 8.63456 11.2234 8.63456C11.6207 8.63456 11.9439 8.96181 11.9439 9.35644V14.8234C11.9428 15.0147 11.8662 15.1977 11.7307 15.3327C11.5952 15.4676 11.4119 15.5436 11.2206 15.5439V15.5439ZM9.11688 15.5439H6.38475C6.19387 15.5429 6.01109 15.4666 5.87598 15.3318C5.74088 15.1969 5.66432 15.0143 5.66287 14.8234V9.35644C5.67865 9.17586 5.76153 9.00775 5.89517 8.88528C6.0288 8.76282 6.20349 8.69488 6.38475 8.69488C6.56601 8.69488 6.7407 8.76282 6.87433 8.88528C7.00797 9.00775 7.09085 9.17586 7.10663 9.35644V14.1002H9.11962C9.31108 14.1002 9.49469 14.1762 9.63007 14.3116C9.76545 14.447 9.8415 14.6306 9.8415 14.8221C9.8415 15.0135 9.76545 15.1971 9.63007 15.3325C9.49469 15.4679 9.31108 15.5439 9.11962 15.5439H9.11688ZM14.5 0.721436C6.91962 0.721436 0.75 5.73056 0.75 11.8837C0.75 17.3974 5.64225 22.0161 12.2491 22.8933C12.696 22.9868 13.3065 23.1889 13.4605 23.5698C13.598 23.9136 13.5513 24.4471 13.5045 24.8073L13.3161 25.9761C13.2652 26.3198 13.0411 27.3346 14.5179 26.7144C15.9974 26.0971 22.4434 22.0422 25.3309 18.7229C27.3054 16.5573 28.25 14.3408 28.25 11.8837C28.25 5.73056 22.079 0.721436 14.5 0.721436V0.721436Z" fill="white"/>
</svg>
