<svg width="23" height="23" viewBox="0 0 23 23" fill="none" xmlns="http://www.w3.org/2000/svg">
<path d="M0.523375 6.95714L10.9262 0.720138C11.1011 0.61523 11.3012 0.559814 11.5051 0.559814C11.709 0.559814 11.909 0.61523 12.0839 0.720138L22.4766 6.95826C22.56 7.00823 22.629 7.07895 22.6769 7.16354C22.7248 7.24812 22.75 7.34368 22.75 7.44089V21.7464C22.75 22.0448 22.6315 22.3309 22.4205 22.5419C22.2095 22.7529 21.9234 22.8714 21.625 22.8714H1.375C1.07663 22.8714 0.790483 22.7529 0.579505 22.5419C0.368526 22.3309 0.25 22.0448 0.25 21.7464V7.43976C0.24998 7.34255 0.275153 7.247 0.323064 7.16241C0.370975 7.07783 0.439989 7.0071 0.523375 6.95714ZM18.6392 8.52089L11.5686 14.6398L4.35287 8.51414L2.89712 10.2286L11.5821 17.603L20.1107 10.223L18.6392 8.52089V8.52089Z" fill="white"/>
</svg>
