<?xml version="1.0" encoding="UTF-8" standalone="no"?>
<!DOCTYPE svg PUBLIC "-//W3C//DTD SVG 1.1//EN" "http://www.w3.org/Graphics/SVG/1.1/DTD/svg11.dtd">
<svg width="100%" height="100%" viewBox="0 0 48 48" version="1.1" xmlns="http://www.w3.org/2000/svg" xmlns:xlink="http://www.w3.org/1999/xlink" xml:space="preserve" xmlns:serif="http://www.serif.com/" style="fill-rule:evenodd;clip-rule:evenodd;stroke-linejoin:round;stroke-miterlimit:2;">
    <g transform="matrix(1,0,0,1,-50,0)">
        <g transform="matrix(1.92,0,0,1.92,50,7.10543e-15)">
            <g id="Layer2">
                <path d="M12.5,8.75C11.505,8.75 10.552,9.145 9.848,9.848C9.145,10.552 8.75,11.505 8.75,12.5C8.75,13.495 9.145,14.448 9.848,15.152C10.552,15.855 11.505,16.25 12.5,16.25C13.495,16.25 14.448,15.855 15.152,15.152C15.855,14.448 16.25,13.495 16.25,12.5C16.25,11.505 15.855,10.552 15.152,9.848C14.448,9.145 13.495,8.75 12.5,8.75ZM12.5,6.25C14.158,6.25 15.747,6.908 16.919,8.081C18.092,9.253 18.75,10.842 18.75,12.5C18.75,14.158 18.092,15.747 16.919,16.919C15.747,18.092 14.158,18.75 12.5,18.75C10.842,18.75 9.253,18.092 8.081,16.919C6.908,15.747 6.25,14.158 6.25,12.5C6.25,10.842 6.908,9.253 8.081,8.081C9.253,6.908 10.842,6.25 12.5,6.25ZM20.625,5.938C20.625,6.352 20.46,6.749 20.167,7.042C19.874,7.335 19.477,7.5 19.063,7.5C18.648,7.5 18.251,7.335 17.958,7.042C17.665,6.749 17.5,6.352 17.5,5.938C17.5,5.523 17.665,5.126 17.958,4.833C18.251,4.54 18.648,4.375 19.063,4.375C19.477,4.375 19.874,4.54 20.167,4.833C20.46,5.126 20.625,5.523 20.625,5.938ZM12.5,2.5C9.408,2.5 8.903,2.509 7.464,2.572C6.484,2.619 5.826,2.75 5.216,2.987C4.674,3.197 4.283,3.449 3.866,3.866C3.475,4.244 3.174,4.706 2.986,5.216C2.749,5.829 2.618,6.485 2.572,7.464C2.508,8.844 2.5,9.326 2.5,12.5C2.5,15.592 2.509,16.098 2.572,17.536C2.619,18.515 2.75,19.174 2.986,19.783C3.199,20.326 3.449,20.718 3.864,21.133C4.285,21.552 4.676,21.804 5.214,22.011C5.831,22.25 6.489,22.383 7.464,22.427C8.844,22.493 9.326,22.5 12.5,22.5C15.592,22.5 16.098,22.491 17.536,22.427C18.514,22.381 19.173,22.25 19.783,22.014C20.324,21.802 20.718,21.551 21.133,21.136C21.554,20.715 21.805,20.324 22.013,19.786C22.25,19.17 22.383,18.511 22.427,17.536C22.493,16.156 22.5,15.674 22.5,12.5C22.5,9.408 22.491,8.903 22.427,7.464C22.381,6.486 22.25,5.826 22.013,5.216C21.824,4.706 21.524,4.245 21.134,3.866C20.756,3.475 20.294,3.174 19.784,2.986C19.171,2.749 18.514,2.618 17.536,2.572C16.156,2.508 15.674,2.5 12.5,2.5ZM12.5,0C15.896,0 16.32,0.012 17.653,0.075C18.984,0.138 19.89,0.346 20.688,0.656C21.513,0.974 22.208,1.404 22.903,2.098C23.538,2.722 24.03,3.478 24.344,4.313C24.653,5.109 24.863,6.016 24.925,7.348C24.984,8.68 25,9.104 25,12.5C25,15.896 24.988,16.32 24.925,17.653C24.863,18.984 24.653,19.89 24.344,20.688C24.031,21.522 23.539,22.278 22.903,22.903C22.278,23.538 21.522,24.03 20.688,24.344C19.891,24.653 18.984,24.863 17.653,24.925C16.32,24.984 15.896,25 12.5,25C9.104,25 8.68,24.988 7.348,24.925C6.016,24.863 5.11,24.653 4.313,24.344C3.478,24.031 2.722,23.539 2.098,22.903C1.462,22.278 0.97,21.522 0.656,20.688C0.346,19.891 0.138,18.984 0.075,17.653C0.016,16.32 0,15.896 0,12.5C0,9.104 0.012,8.68 0.075,7.348C0.138,6.015 0.346,5.11 0.656,4.313C0.969,3.478 1.461,2.722 2.098,2.098C2.722,1.462 3.478,0.97 4.313,0.656C5.11,0.346 6.015,0.138 7.348,0.075C8.68,0.016 9.104,0 12.5,0Z" style="fill:rgb(26,45,61);fill-rule:nonzero;"/>
            </g>
        </g>
    </g>
</svg>
