<?xml version="1.0" encoding="UTF-8" standalone="no"?>
<!DOCTYPE svg PUBLIC "-//W3C//DTD SVG 1.1//EN" "http://www.w3.org/Graphics/SVG/1.1/DTD/svg11.dtd">
<svg width="100%" height="100%" viewBox="0 0 48 48" version="1.1" xmlns="http://www.w3.org/2000/svg" xmlns:xlink="http://www.w3.org/1999/xlink" xml:space="preserve" xmlns:serif="http://www.serif.com/" style="fill-rule:evenodd;clip-rule:evenodd;stroke-linejoin:round;stroke-miterlimit:2;">
    <g transform="matrix(1,0,0,1,-100,0)">
        <g transform="matrix(1.74545,0,0,1.74545,98.6909,-0.259234)">
            <g id="Layer2">
                <path d="M23.662,12.09C23.661,12.282 23.585,12.465 23.449,12.601C23.314,12.736 23.13,12.812 22.938,12.812L20.928,12.812L20.928,14.102L22.938,14.102C23.036,14.097 23.133,14.113 23.224,14.147C23.315,14.182 23.399,14.234 23.469,14.301C23.539,14.369 23.596,14.45 23.634,14.539C23.672,14.629 23.692,14.725 23.692,14.823C23.692,14.92 23.672,15.017 23.634,15.106C23.596,15.196 23.539,15.277 23.469,15.344C23.399,15.412 23.315,15.464 23.224,15.498C23.133,15.533 23.036,15.548 22.938,15.544L20.206,15.544C20.016,15.543 19.834,15.466 19.699,15.331C19.565,15.196 19.489,15.014 19.488,14.823L19.488,9.356C19.488,8.962 19.812,8.635 20.21,8.635L22.944,8.635C23.135,8.635 23.319,8.712 23.454,8.847C23.589,8.983 23.664,9.167 23.664,9.359C23.663,9.55 23.587,9.733 23.451,9.868C23.315,10.003 23.131,10.079 22.94,10.078L20.93,10.078L20.93,11.368L22.94,11.368C23.34,11.368 23.663,11.694 23.663,12.09L23.662,12.09ZM18.027,15.507C17.953,15.53 17.876,15.542 17.799,15.541C17.686,15.544 17.573,15.519 17.472,15.469C17.37,15.419 17.282,15.346 17.214,15.255L14.415,11.455L14.415,14.823C14.401,15.005 14.319,15.175 14.186,15.298C14.052,15.422 13.877,15.491 13.695,15.491C13.513,15.491 13.338,15.422 13.204,15.298C13.071,15.175 12.989,15.005 12.975,14.823L12.975,9.356C12.975,9.166 13.05,8.984 13.184,8.849C13.318,8.714 13.5,8.638 13.69,8.637C13.913,8.637 14.119,8.756 14.257,8.927L17.078,12.743L17.078,9.356C17.078,8.962 17.401,8.635 17.8,8.635C18.195,8.635 18.522,8.962 18.522,9.356L18.522,14.823C18.522,14.975 18.474,15.123 18.385,15.245C18.296,15.368 18.171,15.459 18.027,15.507ZM11.221,15.544C11.03,15.543 10.848,15.467 10.713,15.332C10.578,15.197 10.502,15.014 10.502,14.823L10.502,9.356C10.502,8.962 10.826,8.635 11.223,8.635C11.621,8.635 11.944,8.962 11.944,9.356L11.944,14.823C11.943,15.015 11.866,15.198 11.731,15.333C11.595,15.468 11.412,15.544 11.221,15.544ZM9.12,15.544L6.385,15.544C6.194,15.543 6.011,15.467 5.876,15.332C5.741,15.197 5.664,15.014 5.663,14.823L5.663,9.356C5.679,9.176 5.762,9.008 5.895,8.885C6.029,8.763 6.203,8.695 6.385,8.695C6.566,8.695 6.741,8.763 6.874,8.885C7.008,9.008 7.091,9.176 7.107,9.356L7.107,14.1L9.12,14.1C9.311,14.1 9.495,14.176 9.63,14.312C9.765,14.447 9.842,14.631 9.842,14.822C9.842,15.014 9.765,15.197 9.63,15.333C9.495,15.468 9.311,15.544 9.12,15.544ZM14.5,0.721C6.92,0.721 0.75,5.731 0.75,11.884C0.75,17.397 5.642,22.016 12.249,22.893C12.696,22.987 13.307,23.189 13.461,23.57C13.598,23.914 13.551,24.447 13.505,24.807L13.316,25.976C13.265,26.32 13.041,27.335 14.518,26.714C15.997,26.097 22.443,22.042 25.331,18.723C27.305,16.557 28.25,14.341 28.25,11.884C28.25,5.731 22.079,0.721 14.5,0.721Z" style="fill:rgb(26,45,61);fill-rule:nonzero;"/>
            </g>
        </g>
    </g>
</svg>
