<svg width="26" height="21" viewBox="0 0 26 21" fill="none" xmlns="http://www.w3.org/2000/svg">
<path d="M24.9287 3.24579C25.5 5.47329 25.5 10.1233 25.5 10.1233C25.5 10.1233 25.5 14.7733 24.9287 17.0008C24.6112 18.232 23.6825 19.2008 22.5062 19.5283C20.37 20.1233 13 20.1233 13 20.1233C13 20.1233 5.63375 20.1233 3.49375 19.5283C2.3125 19.1958 1.385 18.2283 1.07125 17.0008C0.5 14.7733 0.5 10.1233 0.5 10.1233C0.5 10.1233 0.5 5.47329 1.07125 3.24579C1.38875 2.01454 2.3175 1.04579 3.49375 0.718291C5.63375 0.123291 13 0.123291 13 0.123291C13 0.123291 20.37 0.123291 22.5062 0.718291C23.6875 1.05079 24.615 2.01829 24.9287 3.24579V3.24579ZM10.5 14.4983L18 10.1233L10.5 5.74829V14.4983Z" fill="white"/>
</svg>
